<svg xmlns="http://www.w3.org/2000/svg" xmlns:xlink="http://www.w3.org/1999/xlink" xmlns:fi="http://pattern.flaticon.com/" x="0" y="0" width="47" height="32" viewBox="0 0 48.81305637982196 33.23442136498517"><rect x="0px" y="0px" width="100%" height="100%" opacity="0" fill="#dbe6e9"/><defs><path d="M165,0C74.019,0,0,74.019,0,165s74.019,165,165,165c90.982,0,165-74.019,165-165S255.982,0,165,0z" transform="matrix(0.03030303120613098 0 0 0.03030303120613098 257.5 257.5)" id="L1_48" fill="#481531"/><g transform="matrix(-0.37782243728608844 0.2518815862866081 -0.2518815862866081 -0.37782243728608844 64.8401141090277 262.30497469626476)" id="L1_52"><path d="M51,35a9.995,9.995,0,0,0-1.36.1l-.474-1.962,5.178-1.815-.657-1.888L48.7,31.188,45.474,17.846a2.2,2.2,0,0,0-3.694-1.04l-.874.874-2.963-2.223A2.021,2.021,0,0,0,38,15a2,2,0,1,0-2,2,1.979,1.979,0,0,0,.552-.087l2.926,2.2-4.185,4.185,1.414,1.414,6.487-6.487a.192.192,0,0,1,.2-.051.187.187,0,0,1,.14.145L46.8,31.848,36.348,35.479l1.092-.91a1.558,1.558,0,0,0-1.694-2.59l-2.028,1.015a2,2,0,0,1-1.9-.062l-7.659-4.468A10,10,0,0,1,19.617,22.7l-1.393-4.643a1.6,1.6,0,0,0-3.076.88l1.42,5.206a12,12,0,0,0,4.92,6.827l7.534,5.022a5.958,5.958,0,0,0,3.021.983L21.919,40.494a10.036,10.036,0,0,0-4.06-4.231L20.38,31.6l-1.76-.952-2.6,4.816a10.056,10.056,0,1,0,6.62,6.9L47.268,33.8l.428,1.771A9.977,9.977,0,1,0,51,35ZM15.957,39.783a6.028,6.028,0,0,1,2.128,2.043L14.1,43.21ZM13,51a6,6,0,1,1,1.053-11.9L11.12,44.524A1,1,0,0,0,12,46a.979.979,0,0,0,.328-.056l6.521-2.266A5.986,5.986,0,0,1,13,51Zm38,0a6,6,0,0,1-2.36-11.517l1.388,5.751a1,1,0,0,0,.525.661l2,1,.894-1.79-1.584-.792-1.277-5.292c.137-.009.274-.021.414-.021a6,6,0,0,1,0,12Z"/><path d="M59.839,31.354a2.985,2.985,0,0,0-1.783-5.348l-1.108-3.322A1,1,0,0,0,56,22H52v2h3.279l.882,2.645a2.986,2.986,0,0,0,1.783,5.349l1.108,3.322A1,1,0,0,0,60,36h2V34H60.721Z"/></g><g transform="matrix(0.46875 0 0 0.46875 335 160)" id="L1_50"><path d="M58.174,28.4l-.348-1.968-20.415,3.6L55.364,19.666l-1-1.732L36.412,28.3l13.324-15.88L48.2,11.133,34.878,27.015,41.969,7.533,40.09,6.85,33,26.329V5.6H31v20.73L23.91,6.85l-1.879.683,7.091,19.482L15.8,11.133l-1.532,1.285L27.588,28.3,9.636,17.934l-1,1.732L26.589,30.031l-20.415-3.6L5.826,28.4,26.242,32,5.826,35.6l.348,1.968,20.415-3.6L8.636,44.334l1,1.732L27.588,35.7,14.264,51.582,15.8,52.867,29.122,36.985,22.031,56.467l1.879.683L31,37.671V58.4h2V37.671L40.09,57.15l1.879-.683L34.878,36.985,48.2,52.867l1.532-1.285L36.412,35.7,54.364,46.066l1-1.732L37.411,33.969l20.415,3.6.348-1.968L37.758,32ZM34,32a2,2,0,1,1-2-2A2,2,0,0,1,34,32Z" fill="#b3b3b2"/><path d="M32,36a4,4,0,1,1,4-4A4,4,0,0,1,32,36Zm0-6a2,2,0,1,0,2,2A2,2,0,0,0,32,30Z" fill="#919191"/><path d="M32,3A29,29,0,1,0,61,32,29,29,0,0,0,32,3Zm0,54A25,25,0,1,1,57,32,25,25,0,0,1,32,57Z" fill="#d1d1cf"/><path d="M53.321,18.944a25,25,0,0,1-40.855,28.65c-1.442.439-2.822.82-4.132,1.156A28.994,28.994,0,1,0,55.62,15.185C54.889,16.486,54.12,17.735,53.321,18.944Z" fill="#bfbfbd"/></g><path d="M495.608,352.992l-5.933-18.26a8,8,0,0,0-6.417-5.439l-8.207-1.236a94.692,94.692,0,0,0-10.6-14.554l1.364-8.215a8,8,0,0,0-3.189-7.783L447.1,286.22a8,8,0,0,0-8.387-.629l-7.354,3.818a93.746,93.746,0,0,0-17.151-5.555l-3.716-7.432A8,8,0,0,0,403.332,272h-19.2a7.976,7.976,0,0,0-4.679,1.534L362.462,232H416a8,8,0,0,0,7.761-9.94l-8-32A8,8,0,0,0,408,184H387.313l-21.224-21.224-23.638-32.234c-.067-.092-.142-.173-.212-.261-.046-.057-.084-.119-.132-.176l-.128-.151,21.6-10.8a8,8,0,0,0,4.267-5.586l1.79-8.952.173.051a8,8,0,0,0,10.279-7.7l-.055-13.124a49.272,49.272,0,0,0-57.373-48.395l-3.031.5a49.865,49.865,0,0,0-37.059,28.119,234.552,234.552,0,0,0-43.656,5.123l-35.194,7.542a136.962,136.962,0,0,0-82.828,54.42,41.26,41.26,0,0,0-3.162,42.191,83.09,83.09,0,0,0,36.924,36.924l7.956,3.977,49.279,70.4q-.077,1.8-.071,3.6l-21.6,19.589.424-2.549a8,8,0,0,0-3.189-7.784L171.919,286.22a8,8,0,0,0-8.388-.628l-7.352,3.817a93.771,93.771,0,0,0-17.151-5.555l-3.716-7.432A8,8,0,0,0,128.157,272h-19.2a8,8,0,0,0-7.156,4.422l-3.716,7.432a93.736,93.736,0,0,0-17.15,5.555l-7.353-3.817a7.991,7.991,0,0,0-8.388.628L49.661,297.505a8,8,0,0,0-3.19,7.784l1.365,8.214a94.65,94.65,0,0,0-10.6,14.554l-8.207,1.236a8,8,0,0,0-6.417,5.439l-5.933,18.26a8,8,0,0,0,2,8.172L24.6,367c-.294,3.036-.442,6.05-.442,9s.148,5.965.442,9l-5.924,5.835a8,8,0,0,0-2,8.172l5.933,18.26a8,8,0,0,0,6.417,5.439l8.207,1.236a94.65,94.65,0,0,0,10.6,14.554l-1.365,8.214a8,8,0,0,0,3.19,7.784L65.194,465.78a8,8,0,0,0,8.388.628l7.353-3.817a93.736,93.736,0,0,0,17.15,5.555l3.716,7.432A8,8,0,0,0,108.957,480h19.2a8,8,0,0,0,7.155-4.422l3.716-7.432a93.771,93.771,0,0,0,17.151-5.555l7.352,3.817a8,8,0,0,0,8.388-.628L187.453,454.5a8,8,0,0,0,3.189-7.784l-1.365-8.214a94.65,94.65,0,0,0,10.6-14.554l8.207-1.236a8,8,0,0,0,6.417-5.439l5.933-18.26a8,8,0,0,0-2-8.172L212.515,385c.032-.335.044-.666.073-1,0,0,14.213-.08,14.624-.039l66.9,6.62-.259.255a8,8,0,0,0-2,8.172l5.934,18.26a8,8,0,0,0,6.417,5.439l8.207,1.236a94.632,94.632,0,0,0,10.6,14.554l-1.366,8.214a8,8,0,0,0,3.19,7.784l15.533,11.285a8,8,0,0,0,8.388.628l7.353-3.817a93.746,93.746,0,0,0,17.151,5.555l3.716,7.432A8,8,0,0,0,384.132,480h19.2a8,8,0,0,0,7.155-4.422l3.716-7.432a93.746,93.746,0,0,0,17.151-5.555l7.354,3.818a8,8,0,0,0,8.387-.629L462.628,454.5a8,8,0,0,0,3.189-7.783l-1.364-8.215a94.519,94.519,0,0,0,10.6-14.555l8.207-1.235a8,8,0,0,0,6.417-5.439l5.933-18.26a8,8,0,0,0-1.994-8.172L487.69,385c.293-3.036.442-6.05.442-9s-.149-5.965-.442-9l5.924-5.835A8,8,0,0,0,495.608,352.992Zm-173.962-47.7,1.366,8.214a94.632,94.632,0,0,0-10.6,14.554l-8.207,1.236a8,8,0,0,0-6.417,5.439l-3.724,11.461-29.383-14.78L270.471,288h62.34l1.17,2.86-9.145,6.645A8,8,0,0,0,321.646,305.289Zm-9.91-210.727a27.572,27.572,0,0,0-4.4-3.3l-3.275-6.139,15.1,4.488Zm-9.79,12.85,21.1,24.938-21.935,9.916-17.039-19.474a11.79,11.79,0,1,1,17.873-15.38Zm-9.331,49.439,20.7,31.538a7.949,7.949,0,0,0,1.031,1.268l14.01,14.009h-.008a24.324,24.324,0,0,0-16.613,32.807L313.175,240h-36.3l1.753-13.146a28.169,28.169,0,0,0-7.956-23.5L227.313,160h23.493a78,78,0,0,0,36.581-9.123ZM391.1,344.268a31.831,31.831,0,0,0-15.387,6.353l-49.175-120.2a8.322,8.322,0,0,1,5.685-11.226,8.366,8.366,0,0,1,9.722,4.923ZM395.175,360a16,16,0,1,1-16,16A16.018,16.018,0,0,1,395.175,360Zm-68.909-88h-52.02l4-16H319.72Zm38.489,94.085a32,32,0,1,0,44.96-18.576l-7.68-18.775a47.959,47.959,0,1,1-45.6,17.022ZM354.343,173.657l24,24A8,8,0,0,0,384,200h17.754l4,16H363.313l-37.075-37.076-15.415-23.49,22.562-10.2,20.164,27.5A8.048,8.048,0,0,0,354.343,173.657Zm-1.42-67.063-21.58,10.79-9.015-10.655L339.11,95.541l15.124,4.5Zm-30.665-54.86,3.031-.505A33.273,33.273,0,0,1,364.032,83.91l.01,2.352L299.18,66.978A33.92,33.92,0,0,1,322.258,51.734ZM207.072,92.38l35.193-7.541a218.492,218.492,0,0,1,40.969-4.777l4.133,7.75a27.783,27.783,0,0,0-15.335,45.516l4.457,5.094A62.017,62.017,0,0,1,250.806,144H210.675l-45.239-34.059A121.675,121.675,0,0,1,207.072,92.38ZM132.04,166.19a25.26,25.26,0,0,1,1.88-25.748,120.924,120.924,0,0,1,18.351-20.385l50.469,38,56.614,56.614a12.071,12.071,0,0,1,3.41,10.072L249,328h-11.23l-6.8-20.394a62.379,62.379,0,0,1,0-39.212l8.621-25.864a8,8,0,0,0-4.011-9.685l-63.965-31.982-.074-.038-9.731-4.865A66.976,66.976,0,0,1,132.04,166.19Zm90.176,77.862-6.2,18.6-23.363-33.375Zm-6.427,68.614,8.08,24.24L220.76,368h-8.172c-.029-.335-.041-.666-.073-1l5.923-5.835a8,8,0,0,0,2-8.172l-5.933-18.26a8,8,0,0,0-6.417-5.439l-8.207-1.236c-.94-1.591-1.944-3.143-2.977-4.677l17.406-15.787C214.746,309.3,215.231,310.992,215.789,312.666ZM182.039,368a63.507,63.507,0,0,0-8.018-23.87l10.888-9.876q1.515,2.4,2.854,4.9a8,8,0,0,0,5.866,4.144l7.182,1.081,2.877,8.856-5.188,5.11a8,8,0,0,0-2.311,6.8q.2,1.432.344,2.858ZM136,376a16,16,0,1,1-16-16A16.019,16.019,0,0,1,136,376Zm5.335-23.825A31.983,31.983,0,1,0,150.987,384h14.89a48.031,48.031,0,1,1-13.4-41.93ZM150.987,368c-.2-.792-.447-1.568-.709-2.335L161.813,355.2a47.617,47.617,0,0,1,4.064,12.8ZM198.5,393.656l5.188,5.11-2.877,8.856-7.182,1.081a8,8,0,0,0-5.866,4.144,78.616,78.616,0,0,1-12.778,17.547,8,8,0,0,0-2.133,6.865l1.2,7.2-7.533,5.473-6.439-3.343a7.994,7.994,0,0,0-7.194-.089,77.829,77.829,0,0,1-20.644,6.687,8,8,0,0,0-5.768,4.3L123.212,464H113.9l-3.257-6.514a8,8,0,0,0-5.769-4.3A77.829,77.829,0,0,1,84.231,446.5a8,8,0,0,0-7.194.089L70.6,449.93l-7.533-5.473,1.2-7.2a8,8,0,0,0-2.133-6.865,78.612,78.612,0,0,1-12.777-17.547,8,8,0,0,0-5.867-4.144L36.3,407.622l-2.877-8.856,5.188-5.11a8,8,0,0,0,2.311-6.8,77.239,77.239,0,0,1,0-21.716,8,8,0,0,0-2.311-6.8l-5.188-5.11,2.877-8.856,7.182-1.081a8,8,0,0,0,5.867-4.144,78.612,78.612,0,0,1,12.777-17.547,8,8,0,0,0,2.133-6.865l-1.2-7.2L70.6,302.07l6.439,3.343a8,8,0,0,0,7.194.089,77.829,77.829,0,0,1,20.644-6.687,8,8,0,0,0,5.769-4.3L113.9,288h9.311l3.258,6.514a8,8,0,0,0,5.768,4.3,77.829,77.829,0,0,1,20.644,6.687,8,8,0,0,0,7.194-.089l6.439-3.343,7.533,5.473-1.2,7.2a8,8,0,0,0,2.133,6.865l.025.027-10.687,9.692A63.97,63.97,0,1,0,182.039,384h14.494q-.147,1.425-.344,2.858A8,8,0,0,0,198.5,393.656ZM239.24,344H254.1l42.951,21.606.014,9.19-60.309-5.968Zm232.125,21.142a77.239,77.239,0,0,1,0,21.716,8,8,0,0,0,2.31,6.8l5.189,5.11-2.878,8.856L468.8,408.7a8,8,0,0,0-5.866,4.145A78.663,78.663,0,0,1,450.161,430.4a8,8,0,0,0-2.133,6.863l1.2,7.2-7.533,5.473-6.44-3.343a8,8,0,0,0-7.194-.089,77.8,77.8,0,0,1-20.643,6.687,8,8,0,0,0-5.769,4.3L398.388,464h-9.312l-3.257-6.514a8,8,0,0,0-5.769-4.3,77.81,77.81,0,0,1-20.643-6.687,8,8,0,0,0-7.195.089l-6.439,3.343-7.533-5.473,1.2-7.2A8,8,0,0,0,337.3,430.4a78.628,78.628,0,0,1-12.778-17.548,8,8,0,0,0-5.866-4.144l-7.182-1.081-2.878-8.856,5.189-5.11a8,8,0,0,0,2.31-6.8,77.239,77.239,0,0,1,0-21.716,8,8,0,0,0-2.31-6.8l-2.018-1.987a7.974,7.974,0,0,0-2.486-2.449l-.684-.674,2.877-8.856,7.182-1.081a8,8,0,0,0,5.866-4.144A78.628,78.628,0,0,1,337.3,321.605a8,8,0,0,0,2.133-6.864l-1.2-7.2,1.978-1.437,9.569,23.39A64,64,0,1,0,395.2,312.037l-8.166-19.961L389.076,288h9.312l3.257,6.514a8,8,0,0,0,5.769,4.3,77.8,77.8,0,0,1,20.643,6.687,8,8,0,0,0,7.194-.089l6.44-3.343,7.533,5.473-1.2,7.2a8,8,0,0,0,2.133,6.863,78.686,78.686,0,0,1,12.777,17.548A8,8,0,0,0,468.8,343.3l7.182,1.081,2.878,8.856-5.189,5.11A8,8,0,0,0,471.365,365.142Z" transform="matrix(0.06884491700557337 -0.012293735527524942 0.012293735527524942 0.06884491700557337 303.2285049515268 59.5228975416196)" id="L1_51"/><g transform="matrix(1.09375 0 0 1.09375 104 63)" id="L1_53"><path d="M14,50a11,11,0,0,0,10.81-9h.374A2.99,2.99,0,0,0,28,43c.065,0,.126-.015.19-.019l1.891,4.413A1,1,0,0,0,31,48h3V46H31.659l-1.63-3.8A2.98,2.98,0,0,0,31,40a2.942,2.942,0,0,0-.045-.442c1.979-1.847,3.948-5.321,6.156-9.461a28.412,28.412,0,0,1,2.6-4.39,6.127,6.127,0,0,1,3.04-1.544l1.843,5.266a11.146,11.146,0,1,0,1.832-.822L43.409,20h.3V18H42a1,1,0,0,0-.944,1.33l.635,1.815c-4.612.851-11.774,5.6-14.34,7.381l-2.567-6.745-1.867.719L26.159,31H24a1,1,0,0,0-.625.219l-.926.741A11,11,0,1,0,14,50ZM45.945,33.3l2.111,6.029a1,1,0,0,0,.628.618l3,1,.632-1.9-2.534-.846-2.04-5.827a7.01,7.01,0,1,1-1.8.922Zm-7.8-8.84a30.026,30.026,0,0,0-2.8,4.694c-1.421,2.664-3.531,6.608-5.384,8.593A2.976,2.976,0,0,0,29,37.184V33a1,1,0,0,0-.066-.359l-.843-2.192A71.531,71.531,0,0,1,38.145,24.461ZM24.351,33h2.578l.071.186v4A2.987,2.987,0,0,0,25.184,39H25a10.942,10.942,0,0,0-1.415-5.387ZM21,39H16.851L20.4,36.164A6.952,6.952,0,0,1,21,39Zm-7-7a6.982,6.982,0,0,1,5.323,2.461l-5.948,4.758A1,1,0,0,0,14,41h6.706A7,7,0,1,1,14,32Z"/><circle cx="47" cy="19" r="2"/><path d="M20.328,20.664a2.4,2.4,0,0,0,1.415.23l5.337-.763A1.071,1.071,0,0,0,26.929,18H19v.515A2.4,2.4,0,0,0,20.328,20.664Z"/></g><g transform="matrix(0.16508536040782928 0 0 0.16508536040782928 6.217274382710457 -1.7346275085581055)" id="L1_54"><path d="M217.289,83.307c-1.024,0-2.075,0.146-3.124,0.436l-11.023,3.036L191.49,58.398c-3.491-8.506-13.813-15.427-23.009-15.427   h-7.753V19.442c0-4.136-3.364-7.5-7.5-7.5H73.742c-4.136,0-7.5,3.364-7.5,7.5v23.529h-7.913c-9.195,0-19.518,6.92-23.009,15.426   L23.684,86.739l-10.879-2.997c-1.049-0.289-2.101-0.436-3.124-0.436C4.072,83.307,0,87.593,0,93.497v6.032   c0,6.893,5.608,12.5,12.5,12.5h0.802l-1.664,4.052c-3.244,7.903-5.884,21.283-5.884,29.825v56.621c0,6.893,5.607,12.5,12.5,12.5   h15.027c6.893,0,12.5-5.607,12.5-12.5v-13.916H181.03v13.916c0,6.893,5.608,12.5,12.5,12.5h15.024c6.893,0,12.5-5.607,12.5-12.5   v-56.621c0-8.542-2.64-21.922-5.884-29.825l-1.664-4.052h0.963c6.893,0,12.5-5.607,12.5-12.5v-6.032   C226.969,87.593,222.898,83.307,217.289,83.307z M143.612,21.944c0-0.165,0.135-0.3,0.3-0.3h5.778c0.165,0,0.3,0.135,0.3,0.3   v20.797c0,0.1-0.057,0.175-0.132,0.23h-6.114c-0.075-0.055-0.132-0.13-0.132-0.23V21.944z M102.172,21.644h6.943   c0.165,0,0.35,0.125,0.411,0.279l8.241,20.716l7.554-9.345c0.104-0.128,0.114-0.346,0.023-0.483l-7.25-10.917   c-0.092-0.138-0.031-0.25,0.134-0.25h6.421c0.165,0,0.371,0.115,0.457,0.255l3.737,6.062c0.086,0.141,0.228,0.141,0.314,0   l3.74-6.062c0.086-0.141,0.292-0.255,0.457-0.255h6.424c0.165,0,0.225,0.112,0.134,0.25l-7.256,10.917   c-0.092,0.138-0.081,0.355,0.022,0.483l7.692,9.514c0.052,0.063,0.064,0.122,0.045,0.164h-6.818   c-0.09-0.047-0.171-0.11-0.218-0.185l-4.221-6.755c-0.088-0.14-0.23-0.14-0.318,0l-4.212,6.755   c-0.047,0.075-0.128,0.138-0.218,0.185h-12.847c-0.088-0.052-0.164-0.124-0.193-0.215l-1.416-4.336   c-0.051-0.157-0.228-0.285-0.393-0.285h-7.87c-0.165,0-0.345,0.127-0.399,0.283l-1.526,4.34c-0.032,0.09-0.108,0.162-0.197,0.213   h-6.179c-0.049-0.051-0.07-0.121-0.035-0.208l8.404-20.84C101.822,21.769,102.007,21.644,102.172,21.644z M81.852,42.741v-16.52   c0-0.165-0.135-0.3-0.3-0.3h-6.945c-0.165,0-0.3-0.135-0.3-0.3v-3.678c0-0.165,0.135-0.3,0.3-0.3h20.91c0.165,0,0.3,0.135,0.3,0.3   v3.678c0,0.165-0.135,0.3-0.3,0.3h-6.985c-0.165,0-0.3,0.135-0.3,0.3v16.52c0,0.1-0.057,0.175-0.132,0.23h-6.116   C81.909,42.917,81.852,42.841,81.852,42.741z M32.516,105.062l17.705-43.129c2.089-5.088,8.298-9.251,13.798-9.251h98.772   c5.5,0,11.709,4.163,13.798,9.251l17.705,43.129c2.089,5.088-0.702,9.251-6.202,9.251H38.718   C33.218,114.313,30.427,110.15,32.516,105.062z M72.512,160.604c0,2.75-2.25,5-5,5H33.718c-2.75,0-5-2.25-5-5v-16.032   c0-2.75,2.25-5,5-5h33.794c2.75,0,5,2.25,5,5V160.604z M197.768,160.604c0,2.75-2.25,5-5,5h-33.794c-2.75,0-5-2.25-5-5v-16.032   c0-2.75,2.25-5,5-5h33.794c2.75,0,5,2.25,5,5V160.604z"/><path d="M108.157,33.858c0.165,0,0.246-0.124,0.181-0.275l-2.492-5.751c-0.066-0.151-0.176-0.153-0.244-0.003l-2.639,5.757   c-0.068,0.15,0.01,0.272,0.175,0.272H108.157z"/></g></defs><g fi:class="KUsePattern"><pattern id="pattern_L1_48" width="350" height="350" patternUnits="userSpaceOnUse"><use xlink:href="#L1_48" x="-350" y="-350"/><use xlink:href="#L1_48" x="0" y="-350"/><use xlink:href="#L1_48" x="350" y="-350"/><use xlink:href="#L1_48" x="-350" y="0"/><use xlink:href="#L1_48" x="0" y="0"/><use xlink:href="#L1_48" x="350" y="0"/><use xlink:href="#L1_48" x="-350" y="350"/><use xlink:href="#L1_48" x="0" y="350"/><use xlink:href="#L1_48" x="350" y="350"/></pattern><rect x="0" y="0" width="100%" height="100%" fill="url(#pattern_L1_48)"/></g><g fi:class="KUsePattern"><pattern id="pattern_L1_52" width="350" height="350" patternUnits="userSpaceOnUse"><use xlink:href="#L1_52" x="-350" y="-350"/><use xlink:href="#L1_52" x="0" y="-350"/><use xlink:href="#L1_52" x="350" y="-350"/><use xlink:href="#L1_52" x="-350" y="0"/><use xlink:href="#L1_52" x="0" y="0"/><use xlink:href="#L1_52" x="350" y="0"/><use xlink:href="#L1_52" x="-350" y="350"/><use xlink:href="#L1_52" x="0" y="350"/><use xlink:href="#L1_52" x="350" y="350"/></pattern><rect x="0" y="0" width="100%" height="100%" fill="url(#pattern_L1_52)"/></g><g fi:class="KUsePattern"><pattern id="pattern_L1_50" width="350" height="350" patternUnits="userSpaceOnUse"><use xlink:href="#L1_50" x="-350" y="-350"/><use xlink:href="#L1_50" x="0" y="-350"/><use xlink:href="#L1_50" x="350" y="-350"/><use xlink:href="#L1_50" x="-350" y="0"/><use xlink:href="#L1_50" x="0" y="0"/><use xlink:href="#L1_50" x="350" y="0"/><use xlink:href="#L1_50" x="-350" y="350"/><use xlink:href="#L1_50" x="0" y="350"/><use xlink:href="#L1_50" x="350" y="350"/></pattern><rect x="0" y="0" width="100%" height="100%" fill="url(#pattern_L1_50)"/></g><g fi:class="KUsePattern"><pattern id="pattern_L1_51" width="350" height="350" patternUnits="userSpaceOnUse"><use xlink:href="#L1_51" x="-350" y="-350"/><use xlink:href="#L1_51" x="0" y="-350"/><use xlink:href="#L1_51" x="350" y="-350"/><use xlink:href="#L1_51" x="-350" y="0"/><use xlink:href="#L1_51" x="0" y="0"/><use xlink:href="#L1_51" x="350" y="0"/><use xlink:href="#L1_51" x="-350" y="350"/><use xlink:href="#L1_51" x="0" y="350"/><use xlink:href="#L1_51" x="350" y="350"/></pattern><rect x="0" y="0" width="100%" height="100%" fill="url(#pattern_L1_51)"/></g><g fi:class="KUsePattern"><pattern id="pattern_L1_53" width="350" height="350" patternUnits="userSpaceOnUse"><use xlink:href="#L1_53" x="-350" y="-350"/><use xlink:href="#L1_53" x="0" y="-350"/><use xlink:href="#L1_53" x="350" y="-350"/><use xlink:href="#L1_53" x="-350" y="0"/><use xlink:href="#L1_53" x="0" y="0"/><use xlink:href="#L1_53" x="350" y="0"/><use xlink:href="#L1_53" x="-350" y="350"/><use xlink:href="#L1_53" x="0" y="350"/><use xlink:href="#L1_53" x="350" y="350"/></pattern><rect x="0" y="0" width="100%" height="100%" fill="url(#pattern_L1_53)"/></g><g fi:class="KUsePattern"><pattern id="pattern_L1_54" width="350" height="350" patternUnits="userSpaceOnUse"><use xlink:href="#L1_54" x="-350" y="-350"/><use xlink:href="#L1_54" x="0" y="-350"/><use xlink:href="#L1_54" x="350" y="-350"/><use xlink:href="#L1_54" x="-350" y="0"/><use xlink:href="#L1_54" x="0" y="0"/><use xlink:href="#L1_54" x="350" y="0"/><use xlink:href="#L1_54" x="-350" y="350"/><use xlink:href="#L1_54" x="0" y="350"/><use xlink:href="#L1_54" x="350" y="350"/></pattern><rect x="0" y="0" width="100%" height="100%" fill="url(#pattern_L1_54)"/></g></svg>